<svg width="35" height="34" viewBox="0 0 35 34" fill="none" xmlns="http://www.w3.org/2000/svg">
<ellipse cx="17.5" cy="16.7708" rx="17.5" ry="16.7708" fill="#94C99D"/>
<path d="M18 21C17.4696 21 16.9609 20.7893 16.5858 20.4142C16.2107 20.0391 16 19.5304 16 19C16 17.89 16.89 17 18 17C18.5304 17 19.0391 17.2107 19.4142 17.5858C19.7893 17.9609 20 18.4696 20 19C20 19.5304 19.7893 20.0391 19.4142 20.4142C19.0391 20.7893 18.5304 21 18 21ZM24 24V14H12V24H24ZM24 12C24.5304 12 25.0391 12.2107 25.4142 12.5858C25.7893 12.9609 26 13.4696 26 14V24C26 24.5304 25.7893 25.0391 25.4142 25.4142C25.0391 25.7893 24.5304 26 24 26H12C11.4696 26 10.9609 25.7893 10.5858 25.4142C10.2107 25.0391 10 24.5304 10 24V14C10 12.89 10.89 12 12 12H13V10C13 8.67392 13.5268 7.40215 14.4645 6.46447C15.4021 5.52678 16.6739 5 18 5C18.6566 5 19.3068 5.12933 19.9134 5.3806C20.52 5.63188 21.0712 6.00017 21.5355 6.46447C21.9998 6.92876 22.3681 7.47995 22.6194 8.08658C22.8707 8.69321 23 9.34339 23 10V12H24ZM18 7C17.2044 7 16.4413 7.31607 15.8787 7.87868C15.3161 8.44129 15 9.20435 15 10V12H21V10C21 9.20435 20.6839 8.44129 20.1213 7.87868C19.5587 7.31607 18.7956 7 18 7Z" fill="white"/>
</svg>
