<svg width="35" height="34" viewBox="0 0 35 34" fill="none" xmlns="http://www.w3.org/2000/svg">
<ellipse cx="17.5" cy="16.7708" rx="17.5" ry="16.7708" fill="#94C99D"/>
<path d="M21 9C23.1217 9 25.1566 9.84285 26.6569 11.3431C28.1571 12.8434 29 14.8783 29 17C29 19.1217 28.1571 21.1566 26.6569 22.6569C25.1566 24.1571 23.1217 25 21 25C18.8783 25 16.8434 24.1571 15.3431 22.6569C13.8429 21.1566 13 19.1217 13 17C13 14.8783 13.8429 12.8434 15.3431 11.3431C16.8434 9.84285 18.8783 9 21 9ZM21 11C19.4087 11 17.8826 11.6321 16.7574 12.7574C15.6321 13.8826 15 15.4087 15 17C15 18.5913 15.6321 20.1174 16.7574 21.2426C17.8826 22.3679 19.4087 23 21 23C22.5913 23 24.1174 22.3679 25.2426 21.2426C26.3679 20.1174 27 18.5913 27 17C27 15.4087 26.3679 13.8826 25.2426 12.7574C24.1174 11.6321 22.5913 11 21 11ZM20 13H21.5V16.78L23.83 19.11L22.77 20.17L20 17.4V13ZM8 23C7.73478 23 7.48043 22.8946 7.29289 22.7071C7.10536 22.5196 7 22.2652 7 22C7 21.7348 7.10536 21.4804 7.29289 21.2929C7.48043 21.1054 7.73478 21 8 21H11.83C12.14 21.71 12.54 22.38 13 23H8ZM9 18C8.73478 18 8.48043 17.8946 8.29289 17.7071C8.10536 17.5196 8 17.2652 8 17C8 16.7348 8.10536 16.4804 8.29289 16.2929C8.48043 16.1054 8.73478 16 9 16H11.05L11 17L11.05 18H9ZM10 13C9.73478 13 9.48043 12.8946 9.29289 12.7071C9.10536 12.5196 9 12.2652 9 12C9 11.7348 9.10536 11.4804 9.29289 11.2929C9.48043 11.1054 9.73478 11 10 11H13C12.54 11.62 12.14 12.29 11.83 13H10Z" fill="white"/>
</svg>
