<svg width="35" height="34" viewBox="0 0 35 34" fill="none" xmlns="http://www.w3.org/2000/svg">
<ellipse cx="17.5" cy="16.7708" rx="17.5" ry="16.7708" fill="#94C99D"/>
<path d="M10 23.385V15.615C10 15.1683 10.1573 14.7873 10.472 14.472C10.7867 14.1573 11.168 14 11.616 14H15V10.616C15 10.168 15.1573 9.78667 15.472 9.472C15.7867 9.15733 16.168 9 16.616 9H24.385C24.8317 9 25.2127 9.15733 25.528 9.472C25.8427 9.78667 26 10.168 26 10.616V23.385C26 23.8317 25.8427 24.2127 25.528 24.528C25.2133 24.8427 24.8323 25 24.385 25H11.615C11.1683 25 10.7873 24.8427 10.472 24.528C10.1573 24.2133 10 23.8323 10 23.385ZM21.616 24H24.385C24.5643 24 24.7117 23.9423 24.827 23.827C24.9423 23.7117 25 23.5643 25 23.385V10.615C25 10.4357 24.9423 10.2883 24.827 10.173C24.7117 10.0577 24.5643 10 24.385 10H16.615C16.4357 10 16.2883 10.0577 16.173 10.173C16.0577 10.2883 16 10.436 16 10.616V14H19.385C19.8317 14 20.2127 14.1573 20.528 14.472C20.8427 14.7867 21 15.168 21 15.616V23.385C21 23.5643 21.0577 23.7117 21.173 23.827C21.2883 23.9423 21.436 24 21.616 24ZM16 24H20V15.616C20 15.436 19.9423 15.2883 19.827 15.173C19.7117 15.0577 19.5643 15 19.385 15H16V24ZM11.616 24H15V15H11.616C11.436 15 11.2883 15.0577 11.173 15.173C11.0577 15.2883 11 15.436 11 15.616V23.385C11 23.5643 11.0577 23.7117 11.173 23.827C11.2883 23.9423 11.436 24 11.616 24Z" fill="white"/>
</svg>
