<svg width="44" height="44" viewBox="0 0 44 44" fill="none" xmlns="http://www.w3.org/2000/svg">
<path d="M32.5548 13.1872C30.5936 10.8361 27.9039 9.20688 24.9118 8.55765C21.9198 7.90842 18.7967 8.27635 16.0375 9.60312C13.2783 10.9299 11.0408 13.1396 9.67965 15.8821C8.31852 18.6245 7.91163 21.7428 8.52345 24.7427M35.3836 18.8357C36.1057 21.8822 35.7664 25.084 34.4218 27.9115C33.0772 30.739 30.808 33.023 27.9892 34.3858C25.1704 35.7486 21.9709 36.1086 18.9198 35.4062C15.8686 34.7039 13.1485 32.9812 11.2093 30.5232" stroke="#8DA5EF" stroke-linecap="round"/>
<path d="M33.2298 10.0833V13.75H29.5632M14.4382 30.25H10.7715V33.9166" stroke="#8DA5EF" stroke-linecap="round" stroke-linejoin="round"/>
<path d="M22 14.6667V29.3334" stroke="#8DA5EF" stroke-linecap="round"/>
<path d="M25.3183 18.612C25.0983 17.6403 23.8461 16.5587 22.0109 16.5587C20.1757 16.5587 18.7659 17.7503 18.7659 19.2537C18.7659 22.671 25.5694 20.9147 25.5694 24.882C25.5694 26.3138 23.8461 27.5293 22.0128 27.5293C20.1794 27.5293 18.9071 26.4018 18.5312 25.1937" stroke="#8DA5EF" stroke-linecap="round" stroke-linejoin="round"/>
</svg>
